# xmcd
#
# Track frame offsets:
# 225
# 16210
# 28952
# 41782
# 54927
# 74115
# 85100
# 103962
# 121192
# 130740
# 151692
# 164205
#
# Disc length: 2422 seconds
#
#
# Revision: 0
# Processed by: cddbd v1.5.2PL0 Copyright (c) Steve Scherf et al.
# Submitted via: FreeRIP 2.945 
#
DISCID=a409730c
DTITLE=Rausberry - Hotel osamelych dusi
DYEAR=1996
DGENRE=Country
TTITLE0=Choo-Choo bar
TTITLE1=Na zebricku hitparad
TTITLE2=Miami
TTITLE3=Par slov
TTITLE4=Rekni bracho...
TTITLE5=Zacouzenej bar
TTITLE6=Vodnici
TTITLE7=Neni jak driv
TTITLE8=Nadhernej maler
TTITLE9=Na platne kin
TTITLE10=Medailonek
TTITLE11=Hotel osamelych dusi
EXTD=
EXTT0=
EXTT1=
EXTT2=
EXTT3=
EXTT4=
EXTT5=
EXTT6=
EXTT7=
EXTT8=
EXTT9=
EXTT10=
EXTT11=
PLAYORDER=
